<svg width="60" height="60" viewBox="0 0 60 60" fill="none" xmlns="http://www.w3.org/2000/svg">
<rect width="60" height="60" rx="20" fill="white"/>
<path d="M50 25.6855V23.2978L40.4295 27.0833C39.2453 27.5589 38.4883 28.6751 38.4883 29.9466C38.4883 31.2182 39.2551 32.3441 40.4295 32.81L50 36.7023V34.3339L39.4589 30.0728V29.8205L50 25.6758V25.6855Z" fill="#0069F7"/>
<path d="M21.5118 30.0534C21.5118 28.7819 20.745 27.6559 19.5705 27.19L10 23.2978V25.6661L20.5411 29.9272V30.1796L10 34.3145V36.7023L19.5705 32.9168C20.7547 32.4509 21.5118 31.3249 21.5118 30.0534Z" fill="#A6A8AB"/>
<path d="M36.0422 35.9646C35.1396 36.8576 34.8872 38.197 35.3919 39.3618L39.4104 48.8838L41.0799 47.2143L36.644 36.7508L36.8188 36.5761L47.2046 41.0993L48.8935 39.4103L39.4492 35.324C38.2844 34.8192 36.9449 35.0813 36.052 35.9743L36.0422 35.9646Z" fill="#A6A8AB"/>
<path d="M21.7836 24.9382C22.5795 24.9382 23.3657 24.6275 23.9578 24.0355C24.8605 23.1425 25.1128 21.803 24.6081 20.6382L20.5994 11.1163L18.9299 12.7858L23.3657 23.2492L23.191 23.424L12.8051 18.9105L11.1162 20.5994L20.5605 24.6858C20.9585 24.8605 21.3759 24.9382 21.7836 24.9382Z" fill="#A6A8AB"/>
<path d="M30.0534 38.4882C28.7819 38.4882 27.6559 39.255 27.19 40.4295L23.2978 50H25.6661L29.9272 39.4589H30.1796L34.3242 50H36.712L32.9265 40.4295C32.4606 39.2453 31.3347 38.4882 30.0631 38.4882H30.0534Z" fill="#A6A8AB"/>
<path d="M29.9466 21.5118C31.2182 21.5118 32.3441 20.745 32.81 19.5705L36.7023 10H34.3339L30.0728 20.5411H29.8205L25.6855 10H23.2978L27.0833 19.5705C27.5589 20.7547 28.6751 21.5118 29.9466 21.5118Z" fill="#A6A8AB"/>
<path d="M24.0354 36.0422C23.1327 35.1493 21.803 34.8872 20.6382 35.3919L11.1162 39.4007L12.7857 41.0701L23.2492 36.6343L23.4239 36.809L18.9008 47.1949L20.5897 48.8838L24.6761 39.4395C25.1808 38.2747 24.9187 36.9352 24.0257 36.0422H24.0354Z" fill="#A6A8AB"/>
<path d="M35.9646 23.9578C36.5567 24.5499 37.3429 24.8605 38.1388 24.8605C38.5465 24.8605 38.9639 24.7731 39.3618 24.6081L48.8838 20.5897L47.2143 18.9202L36.7508 23.356L36.5761 23.1813L41.0993 12.7955L39.4103 11.1065L35.324 20.5509C34.8192 21.7156 35.0813 23.0551 35.9743 23.9481L35.9646 23.9578Z" fill="#A6A8AB"/>
</svg>
